. 
  
http://www.torrentday.com/        :     The Hottest Private Tracker On The Net!!!


               www . TorrentDay . Com 
(((((((((((((= Enjoy No RAR releases =))))))))))))))))))))


...................................NFO:....................................

.*******************************************************************************
                 Lady.Blood.2008.576p.DVDRip.AC3.X264-BARC0DE
*******************************************************************************

-------------------------------------------------------------------------------
                              General Information
-------------------------------------------------------------------------------
Type.................: Movie
Name.................: Lady Blood
Movie Information....: http://www.imdb.com/title/tt1139796/
Genre................: Horror
-------------------------------------------------------------------------------
                                    PLOT
-------------------------------------------------------------------------------
Yanka is a mother and a chief of police. She's a fulfilled woman, in love with 
her husband and happy with her daughter and mother-in-law. Everything's going 
great until a strange occurrence disturbs her new life. With the help of her 
psychiatrist husband, she tries to convince herself that it's just a nightmare. 
But it gets worse every day... At the same time, she heads an investigation 
into the local mob, which leads her to the discovery of horrible crimes, so much 
like the bloody carnage she herself committed while under a monster's influence 
all those years earlier...

-------------------------------------------------------------------------------
                                    CAST
-------------------------------------------------------------------------------
Emmanuelle Escourrou	... 	Yanka
Philippe Nahon	... 	Jo Laumier
Serge Riaboukine	... 	Pagelli
Shirley Bousquet	... 	Vronique
Luc Shiltz	... 	Lionel Barthez
Lola Giovannetti	... 	Carla, 7

-------------------------------------------------------------------------------
                                    MEDiA iNFO
-------------------------------------------------------------------------------

General
Complete name                    : Lady.Blood.2008.576p.DVDRip.AC3.X264-BARC0DE.mkv
Format                           : Matroska
File size                        : 1.46 GiB
Duration                         : 1h 20mn
Overall bit rate                 : 2 592 Kbps


Video
ID                               : 1
Format                           : AVC
Format/Info                      : Advanced Video Codec
Format profile                   : Baseline@L3.0
Format settings, CABAC           : No
Format settings, ReFrames        : 2 frames
Muxing mode                      : Container profile=Unknown@3.0
Codec ID                         : V_MPEG4/ISO/AVC
Duration                         : 1h 20mn
Bit rate                         : 2 342 Kbps
Width                            : 720 pixels
Height                           : 576 pixels
Display aspect ratio             : 16:9
Frame rate                       : 25.000 fps
Standard                         : PAL
Color space                      : YUV
Chroma subsampling               : 4:2:0
Bit depth                        : 8 bits
Scan type                        : Progressive
Bits/(Pixel*Frame)               : 0.226
Stream size                      : 1.28 GiB (88%)
Writing library                  : x264 core 79

Audio
ID                               : 2
Format                           : AC-3
Format/Info                      : Audio Coding 3
Mode extension                   : CM (complete main)
Codec ID                         : A_AC3
Duration                         : 1h 20mn
Bit rate mode                    : Constant
Bit rate                         : 256 Kbps
Channel(s)                       : 2 channels
Channel positions                : Front: L R
Sampling rate                    : 48.0 KHz
Stream size                      : 147 MiB (10%)
Language                         : French

Menu
00:00:00.000                     : Chapter 1
00:06:24.280                     : Chapter 2
00:14:22.400                     : Chapter 3
00:23:28.760                     : Chapter 4
00:31:35.160                     : Chapter 5
00:40:41.680                     : Chapter 6
00:45:57.200                     : Chapter 7
00:51:55.840                     : Chapter 8
00:58:03.040                     : Chapter 9
01:03:02.120                     : Chapter 10
01:08:00.440                     : Chapter 11
01:13:50.680                     : Chapter 12
01:20:19.000                     : Chapter 13